<svg width="1440" height="1188" viewBox="0 0 1440 1188" fill="none" xmlns="http://www.w3.org/2000/svg">
<path d="M719.885 752.716V1594.95" stroke="white" stroke-width="0.775015" stroke-linecap="round" stroke-linejoin="round"/>
<path d="M640.149 752.716L218.842 1594.95" stroke="white" stroke-width="0.775015" stroke-linecap="round" stroke-linejoin="round"/>
<path d="M798.494 752.716L1218.36 1594.95" stroke="white" stroke-width="0.775015" stroke-linecap="round" stroke-linejoin="round"/>
<path d="M402.404 752.716L-280.998 1094.39" stroke="white" stroke-width="0.775015" stroke-linecap="round" stroke-linejoin="round"/>
<path d="M481.792 752.716L-281 1261.61" stroke="white" stroke-width="0.775015" stroke-linecap="round" stroke-linejoin="round"/>
<path d="M560.964 752.716L-280.95 1595" stroke="white" stroke-width="0.775015" stroke-linecap="round" stroke-linejoin="round"/>
<path d="M-280.999 844.903L402.403 673.689" stroke="white" stroke-width="0.775015" stroke-linecap="round" stroke-linejoin="round"/>
<path d="M1036.93 752.716L1720.78 1094.36" stroke="white" stroke-width="0.775015" stroke-linecap="round" stroke-linejoin="round"/>
<path d="M956.852 752.716L1720.78 1262.95" stroke="white" stroke-width="0.775015" stroke-linecap="round" stroke-linejoin="round"/>
<path d="M1720.78 845.105L1036.93 673.641" stroke="white" stroke-width="0.775015" stroke-linecap="round" stroke-linejoin="round"/>
<path d="M877.679 752.716L1718.11 1594.95" stroke="white" stroke-width="0.775015" stroke-linecap="round" stroke-linejoin="round"/>
<path d="M-280.999 594.787L402.403 594.35" stroke="white" stroke-width="0.775015" stroke-linecap="round" stroke-linejoin="round"/>
<path d="M-280.999 344.674L402.403 515.013" stroke="white" stroke-width="0.775015" stroke-linecap="round" stroke-linejoin="round"/>
<path d="M402.404 435.246L-280.998 93.5607" stroke="white" stroke-width="0.775015" stroke-linecap="round" stroke-linejoin="round"/>
<path d="M481.083 435.246L-280.999 -71.865" stroke="white" stroke-width="0.775015" stroke-linecap="round" stroke-linejoin="round"/>
<path d="M799.3 435.246L1220.19 -407" stroke="white" stroke-width="0.775015" stroke-linecap="round" stroke-linejoin="round"/>
<path d="M560.644 435.247L-280.998 -404.582" stroke="white" stroke-width="0.775015" stroke-linecap="round" stroke-linejoin="round"/>
<path d="M640.198 435.246L217.783 -407" stroke="white" stroke-width="0.775015" stroke-linecap="round" stroke-linejoin="round"/>
<path d="M719.885 -406.999V435.248" stroke="white" stroke-width="0.775015" stroke-linecap="round" stroke-linejoin="round"/>
<path d="M958.405 435.246L1720.78 -72.6616" stroke="white" stroke-width="0.775015" stroke-linecap="round" stroke-linejoin="round"/>
<path d="M878.854 435.247L1720.78 -406.377" stroke="white" stroke-width="0.775015" stroke-linecap="round" stroke-linejoin="round"/>
<path d="M1036.93 435.47L1720.78 93.5577" stroke="white" stroke-width="0.775015" stroke-linecap="round" stroke-linejoin="round"/>
<path d="M1720.78 344.441L1036.93 515.053" stroke="white" stroke-width="0.775015" stroke-linecap="round" stroke-linejoin="round"/>
<path d="M1720.78 594.768L1036.93 594.34" stroke="white" stroke-width="0.775015" stroke-linecap="round" stroke-linejoin="round"/>
<path fill-rule="evenodd" clip-rule="evenodd" d="M-177.288 1042.54H1617.06V145.419H-177.288V1042.54Z" stroke="white" stroke-width="0.775015" stroke-linecap="round" stroke-linejoin="round"/>
<path fill-rule="evenodd" clip-rule="evenodd" d="M-91.5905 999.696H1531.3V188.259H-91.5905V999.696Z" stroke="white" stroke-width="0.775015" stroke-linecap="round" stroke-linejoin="round"/>
<path fill-rule="evenodd" clip-rule="evenodd" d="M-19.6691 963.739H1459.32V224.222H-19.6691V963.739Z" stroke="white" stroke-width="0.775015" stroke-linecap="round" stroke-linejoin="round"/>
<path fill-rule="evenodd" clip-rule="evenodd" d="M40.5404 933.64H1399.06V254.327H40.5404V933.64Z" stroke="white" stroke-width="0.775015" stroke-linecap="round" stroke-linejoin="round"/>
<path fill-rule="evenodd" clip-rule="evenodd" d="M91.6915 908.065H1347.88V279.902H91.6915V908.065Z" stroke="white" stroke-width="0.775015" stroke-linecap="round" stroke-linejoin="round"/>
<path fill-rule="evenodd" clip-rule="evenodd" d="M135.669 886.069H1303.87V301.881H135.669V886.069Z" stroke="white" stroke-width="0.775015" stroke-linecap="round" stroke-linejoin="round"/>
<path fill-rule="evenodd" clip-rule="evenodd" d="M173.896 866.961H1265.61V321H173.896V866.961Z" stroke="white" stroke-width="0.775015" stroke-linecap="round" stroke-linejoin="round"/>
<path fill-rule="evenodd" clip-rule="evenodd" d="M207.432 850.193H1232.05V337.762H207.432V850.193Z" stroke="white" stroke-width="0.775015" stroke-linecap="round" stroke-linejoin="round"/>
<path fill-rule="evenodd" clip-rule="evenodd" d="M237.087 835.377H1202.38V352.589H237.087V835.377Z" stroke="white" stroke-width="0.775015" stroke-linecap="round" stroke-linejoin="round"/>
<path fill-rule="evenodd" clip-rule="evenodd" d="M263.484 822.171H1175.95V365.792H263.484V822.171Z" stroke="white" stroke-width="0.775015" stroke-linecap="round" stroke-linejoin="round"/>
<path fill-rule="evenodd" clip-rule="evenodd" d="M287.16 810.335H1152.26V377.629H287.16V810.335Z" stroke="white" stroke-width="0.775015" stroke-linecap="round" stroke-linejoin="round"/>
<path fill-rule="evenodd" clip-rule="evenodd" d="M308.491 799.665H1130.91V388.29H308.491V799.665Z" stroke="white" stroke-width="0.775015" stroke-linecap="round" stroke-linejoin="round"/>
<path fill-rule="evenodd" clip-rule="evenodd" d="M327.823 790.002H1111.57V397.962H327.823V790.002Z" stroke="white" stroke-width="0.775015" stroke-linecap="round" stroke-linejoin="round"/>
<path d="M1720.78 22.2223H-281" stroke="white" stroke-width="0.775015" stroke-linecap="round" stroke-linejoin="round"/>
<path d="M1720.78 91.2484H-281" stroke="white" stroke-width="0.775015" stroke-linecap="round" stroke-linejoin="round"/>
<path d="M1720.78 1167.43H-281" stroke="white" stroke-width="0.775015" stroke-linecap="round" stroke-linejoin="round"/>
<path fill-rule="evenodd" clip-rule="evenodd" d="M402.405 752.717H1036.93V435.246H402.405V752.717Z" stroke="white" stroke-width="0.775015" stroke-linecap="round" stroke-linejoin="round"/>
<path fill-rule="evenodd" clip-rule="evenodd" d="M389.849 758.989H1049.49V428.972H389.849V758.989Z" stroke="white" stroke-width="0.775015" stroke-linecap="round" stroke-linejoin="round"/>
<path fill-rule="evenodd" clip-rule="evenodd" d="M376.255 765.784H1063.1V422.176H376.255V765.784Z" stroke="white" stroke-width="0.775015" stroke-linecap="round" stroke-linejoin="round"/>
<path fill-rule="evenodd" clip-rule="evenodd" d="M361.499 773.166H1077.86V414.796H361.499V773.166Z" stroke="white" stroke-width="0.775015" stroke-linecap="round" stroke-linejoin="round"/>
<path fill-rule="evenodd" clip-rule="evenodd" d="M345.416 781.207H1093.96V406.76H345.416V781.207Z" stroke="white" stroke-width="0.775015" stroke-linecap="round" stroke-linejoin="round"/>
<path d="M1720.78 1098.21H-281" stroke="white" stroke-width="0.775015" stroke-linecap="round" stroke-linejoin="round"/>
</svg>
